# Aspose.3D Wavefront OBJ Exporter
# Copyright 2004-2023 Aspose Pty Ltd.
# File created: 12/11/2023 18:47:08

mtllib material.lib

#
# object Window_001
#

v -0.764499 1 0.133001
v -0.764499 -0.926209 0.133
v -0.692956 -0.854667 0.133
v -0.692956 0.928458 0.133001
v -0.764499 -0.926209 0.133
v 0.762139 -0.926209 0.133001
v 0.690597 -0.854667 0.133001
v -0.692956 -0.854667 0.133
v 0.762139 -0.926209 0.133001
v 0.762139 1 0.133001
v 0.690597 0.928458 0.133001
v 0.690597 -0.854667 0.133001
v 0.762139 1 0.133001
v -0.764499 1 0.133001
v -0.692956 0.928458 0.133001
v 0.690597 0.928458 0.133001
v -0.692956 -0.854666 -0.081525
v -0.764499 -0.926209 -0.0815251
v -0.764499 1 -0.08152479999999999
v -0.692956 0.928458 -0.08152479999999999
v 0.690597 -0.854666 -0.0815244
v 0.762139 -0.926209 -0.0815244
v -0.764499 -0.926209 -0.0815251
v -0.692956 -0.854666 -0.081525
v 0.690597 0.928458 -0.0815241
v 0.762139 1 -0.081524
v 0.762139 -0.926209 -0.0815244
v 0.690597 -0.854666 -0.0815244
v -0.692956 0.928458 -0.08152479999999999
v -0.764499 1 -0.08152479999999999
v 0.762139 1 -0.081524
v 0.690597 0.928458 -0.0815241
v -0.764499 -0.926209 0.133
v -0.764499 1 0.133001
v -0.764499 1 -0.08152479999999999
v -0.764499 -0.926209 -0.0815251
v -0.692956 0.928458 0.133001
v -0.692956 -0.854667 0.133
v -0.692956 -0.854666 -0.081525
v -0.692956 0.928458 -0.08152479999999999
v 0.762139 -0.926209 0.133001
v -0.764499 -0.926209 0.133
v -0.764499 -0.926209 -0.0815251
v 0.762139 -0.926209 -0.0815244
v -0.692956 -0.854667 0.133
v 0.690597 -0.854667 0.133001
v 0.690597 -0.854666 -0.0815244
v -0.692956 -0.854666 -0.081525
v 0.762139 1 0.133001
v 0.762139 -0.926209 0.133001
v 0.762139 -0.926209 -0.0815244
v 0.762139 1 -0.081524
v 0.690597 -0.854667 0.133001
v 0.690597 0.928458 0.133001
v 0.690597 0.928458 -0.0815241
v 0.690597 -0.854666 -0.0815244
v -0.764499 1 0.133001
v 0.762139 1 0.133001
v 0.762139 1 -0.081524
v -0.764499 1 -0.08152479999999999
v 0.690597 0.928458 0.133001
v -0.692956 0.928458 0.133001
v -0.692956 0.928458 -0.08152479999999999
v 0.690597 0.928458 -0.0815241
v -0.696584 0.934135 0.056493
v -0.696584 -0.856591 0.0564929
v -0.63140700000000008 -0.790779 0.0564929
v -0.63140700000000008 0.868324 0.056493
v -0.696584 -0.856591 0.0564929
v 0.694225 -0.856591 0.0564931
v 0.629047 -0.790779 0.0564931
v -0.63140700000000008 -0.790779 0.0564929
v 0.694225 -0.856591 0.0564931
v 0.694225 0.934135 0.0564932
v 0.629047 0.868324 0.0564932
v 0.629047 -0.790779 0.0564931
v 0.694225 0.934135 0.0564932
v -0.696584 0.934135 0.056493
v -0.63140700000000008 0.868324 0.056493
v 0.629047 0.868324 0.0564932
v -0.63140700000000008 -0.790779 -0.009551
v -0.696584 -0.856591 -0.00955101
v -0.696584 0.934136 -0.00955089999999999
v -0.63140700000000008 0.868324 -0.00955089
v 0.629047 -0.790779 -0.00955079
v 0.694225 -0.856591 -0.00955078
v -0.696584 -0.856591 -0.00955101
v -0.63140700000000008 -0.790779 -0.009551
v 0.62904800000000008 0.868324 -0.0095507
v 0.694225 0.934136 -0.00955068
v 0.694225 -0.856591 -0.00955078
v 0.629047 -0.790779 -0.00955079
v -0.63140700000000008 0.868324 -0.00955089
v -0.696584 0.934136 -0.00955089999999999
v 0.694225 0.934136 -0.00955068
v 0.62904800000000008 0.868324 -0.0095507
v -0.63140700000000008 0.868324 0.056493
v -0.63140700000000008 -0.790779 0.0564929
v -0.63140700000000008 -0.790779 -0.009551
v -0.63140700000000008 0.868324 -0.00955089
v -0.63140700000000008 -0.790779 0.0564929
v 0.629047 -0.790779 0.0564931
v 0.629047 -0.790779 -0.00955079
v -0.63140700000000008 -0.790779 -0.009551
v 0.629047 -0.790779 0.0564931
v 0.629047 0.868324 0.0564932
v 0.62904800000000008 0.868324 -0.0095507
v 0.629047 -0.790779 -0.00955079
v 0.629047 0.868324 0.0564932
v -0.63140700000000008 0.868324 0.056493
v -0.63140700000000008 0.868324 -0.00955089
v 0.62904800000000008 0.868324 -0.0095507
# 112 vertices

vn -4.76837E-07 -1.62921E-07 1
vn -4.76837E-07 -1.62921E-07 1
vn -4.76837E-07 -1.62921E-07 1
vn -4.76837E-07 -1.62921E-07 1
vn -4.76837E-07 -1.62921E-07 1
vn -4.76837E-07 -1.62921E-07 1
vn -4.76837E-07 -1.62921E-07 1
vn -4.76837E-07 -1.62921E-07 1
vn -4.76837E-07 -1.62921E-07 1
vn -4.76837E-07 -1.62921E-07 1
vn -4.76837E-07 -1.62921E-07 1
vn -4.76837E-07 -1.62921E-07 1
vn -4.76837E-07 -1.62921E-07 1
vn -4.76837E-07 -1.62921E-07 1
vn -4.76837E-07 -1.62921E-07 1
vn -4.76837E-07 -1.62921E-07 1
vn 5.72159E-07 1.59244E-07 -1
vn 5.72159E-07 1.59244E-07 -1
vn 5.72159E-07 1.59244E-07 -1
vn 5.72159E-07 1.59244E-07 -1
vn 4.7215E-07 2.58243E-07 -1
vn 4.7215E-07 2.58243E-07 -1
vn 4.7215E-07 2.58243E-07 -1
vn 4.7215E-07 2.58243E-07 -1
vn 3.81515E-07 1.66598E-07 -1
vn 3.81515E-07 1.66598E-07 -1
vn 3.81515E-07 1.66598E-07 -1
vn 3.81515E-07 1.66598E-07 -1
vn 4.81524E-07 6.75986E-08 -1
vn 4.81524E-07 6.75986E-08 -1
vn 4.81524E-07 6.75986E-08 -1
vn 4.81524E-07 6.75986E-08 -1
vn -1 0 -4.76837E-07
vn -1 0 -4.76837E-07
vn -1 0 -4.76837E-07
vn -1 0 -4.76837E-07
vn 1 0 4.76837E-07
vn 1 0 4.76837E-07
vn 1 0 4.76837E-07
vn 1 0 4.76837E-07
vn 7.76866E-14 -1 -1.62921E-07
vn 7.76866E-14 -1 -1.62921E-07
vn 7.76866E-14 -1 -1.62921E-07
vn 7.76866E-14 -1 -1.62921E-07
vn -7.76866E-14 1 1.62921E-07
vn -7.76866E-14 1 1.62921E-07
vn -7.76866E-14 1 1.62921E-07
vn -7.76866E-14 1 1.62921E-07
vn 1 0 4.76837E-07
vn 1 0 4.76837E-07
vn 1 0 4.76837E-07
vn 1 0 4.76837E-07
vn -1 0 -4.76837E-07
vn -1 0 -4.76837E-07
vn -1 0 -4.76837E-07
vn -1 0 -4.76837E-07
vn -7.76866E-14 1 1.62921E-07
vn -7.76866E-14 1 1.62921E-07
vn -7.76866E-14 1 1.62921E-07
vn -7.76866E-14 1 1.62921E-07
vn 7.76866E-14 -1 -1.62921E-07
vn 7.76866E-14 -1 -1.62921E-07
vn 7.76866E-14 -1 -1.62921E-07
vn 7.76866E-14 -1 -1.62921E-07
vn -2.15258E-07 -5.41974E-08 1
vn -2.15258E-07 -5.41974E-08 1
vn -2.15258E-07 -5.41974E-08 1
vn -2.15258E-07 -5.41974E-08 1
vn -1.63029E-07 -5.92984E-08 1
vn -1.63029E-07 -5.92984E-08 1
vn -1.63029E-07 -5.92984E-08 1
vn -1.63029E-07 -5.92984E-08 1
vn -1.10627E-07 -5.41974E-08 1
vn -1.10627E-07 -5.41974E-08 1
vn -1.10627E-07 -5.41974E-08 1
vn -1.10627E-07 -5.41974E-08 1
vn -1.63029E-07 4.43234E-08 1
vn -1.63029E-07 4.43234E-08 1
vn -1.63029E-07 4.43234E-08 1
vn -1.63029E-07 4.43234E-08 1
vn 1.62943E-07 6.40813E-08 -1
vn 1.62943E-07 6.40813E-08 -1
vn 1.62943E-07 6.40813E-08 -1
vn 1.62943E-07 6.40813E-08 -1
vn 1.63029E-07 5.92985E-08 -1
vn 1.63029E-07 5.92985E-08 -1
vn 1.63029E-07 5.92985E-08 -1
vn 1.63029E-07 5.92985E-08 -1
vn 1.62943E-07 5.61742E-08 -1
vn 1.62943E-07 5.61742E-08 -1
vn 1.62943E-07 5.61742E-08 -1
vn 1.62943E-07 5.61742E-08 -1
vn 1.5274E-07 5.92983E-08 -1
vn 1.5274E-07 5.92983E-08 -1
vn 1.5274E-07 5.92983E-08 -1
vn 1.5274E-07 5.92983E-08 -1
vn 1 1.64415E-08 2.542E-06
vn 1 1.64415E-08 2.542E-06
vn 1 1.64415E-08 2.542E-06
vn 1 1.64415E-08 2.542E-06
vn -3.47039E-13 1 1.81505E-06
vn -3.47039E-13 1 1.81505E-06
vn -3.47039E-13 1 1.81505E-06
vn -3.47039E-13 1 1.81505E-06
vn -1 1.64417E-08 -2.542E-06
vn -1 1.64417E-08 -2.542E-06
vn -1 1.64417E-08 -2.542E-06
vn -1 1.64417E-08 -2.542E-06
vn 3.381E-13 -1 -1.81505E-06
vn 3.38101E-13 -1 -1.81505E-06
vn 3.381E-13 -1 -1.81505E-06
vn 3.38101E-13 -1 -1.81505E-06
# 112 vertex normals

vt 0.56763 0.61602500000000008 0
vt 0.56763 0.00995629 0
vt 0.59014 0.0324667 0
vt 0.59014 0.593514 0
vt 0.510985 0.878378 0
vt 0.991332 0.878378 0
vt 0.968821 0.900888 0
vt 0.533496 0.900888 0
vt 0.55961000000000008 0.00718264 0
vt 0.55961000000000008 0.613251 0
vt 0.5371 0.590741 0
vt 0.5371 0.0296931 0
vt 0.989482 0.64971900000000008 0
vt 0.509136 0.64971900000000008 0
vt 0.53164599999999992 0.627208 0
vt 0.966972 0.627208 0
vt 0.657639 0.0324667 0
vt 0.680149 0.00995652 0
vt 0.680149 0.61602500000000008 0
vt 0.657639 0.593514 0
vt 0.968821 0.968387 0
vt 0.991332 0.990898 0
vt 0.51098600000000008 0.990898 0
vt 0.533496 0.968387 0
vt 0.469601 0.590741 0
vt 0.447091 0.613251 0
vt 0.447091 0.00718264 0
vt 0.469601 0.0296931 0
vt 0.53164599999999992 0.739728 0
vt 0.509136 0.717218 0
vt 0.989482 0.717218 0
vt 0.966971 0.739728 0
vt 0.747649 0.00995652 0
vt 0.747649 0.61602500000000008 0
vt 0.680149 0.61602500000000008 0
vt 0.680149 0.00995652 0
vt 0.59014 0.593514 0
vt 0.59014 0.0324667 0
vt 0.657639 0.0324667 0
vt 0.657639 0.593514 0
vt 0.991332 0.878378 0
vt 0.510985 0.878378 0
vt 0.51098600000000008 0.810879 0
vt 0.991332 0.810879 0
vt 0.533496 0.900888 0
vt 0.968821 0.900888 0
vt 0.968821 0.968387 0
vt 0.533496 0.968387 0
vt 0.379592 0.613251 0
vt 0.379592 0.00718264 0
vt 0.447091 0.00718264 0
vt 0.447091 0.613251 0
vt 0.5371 0.0296931 0
vt 0.5371 0.590741 0
vt 0.469601 0.590741 0
vt 0.469601 0.0296931 0
vt 0.509136 0.64971900000000008 0
vt 0.989482 0.64971900000000008 0
vt 0.989482 0.717218 0
vt 0.509136 0.717218 0
vt 0.966971 0.807227 0
vt 0.53164599999999992 0.807227 0
vt 0.53164599999999992 0.739728 0
vt 0.966971 0.739728 0
vt 0.13172 0.976657 0
vt 0.13172 0.0123671 0
vt 0.154231 0.0481824 0
vt 0.154231 0.940841 0
vt 0.25690800000000004 0.494805 0
vt 0.25690800000000004 0.0144587 0
vt 0.279418 0.0369691 0
vt 0.279418 0.472295 0
vt 0.12736 0.0123671 0
vt 0.12736 0.976657 0
vt 0.10485 0.940841 0
vt 0.10485 0.0481824 0
vt 0.372259 0.510425 0
vt 0.372259 0.990771 0
vt 0.34974899999999996 0.96826 0
vt 0.34974899999999996 0.53293500000000008 0
vt 0.22173 0.0481824 0
vt 0.24424 0.0123671 0
vt 0.24424 0.976657 0
vt 0.22173 0.940841 0
vt 0.34691699999999996 0.0369691 0
vt 0.369427 0.0144587 0
vt 0.369427 0.494805 0
vt 0.34691699999999996 0.472295 0
vt 0.037351 0.940841 0
vt 0.0148404 0.976657 0
vt 0.0148404 0.0123671 0
vt 0.037351 0.0481824 0
vt 0.28225 0.96826 0
vt 0.25974000000000004 0.990771 0
vt 0.25974000000000004 0.510424 0
vt 0.28225 0.53293500000000008 0
vt 0.154231 0.940841 0
vt 0.154231 0.0481824 0
vt 0.22173 0.0481824 0
vt 0.22173 0.940841 0
vt 0.279418 0.472295 0
vt 0.279418 0.0369691 0
vt 0.34691699999999996 0.0369691 0
vt 0.34691699999999996 0.472295 0
vt 0.10485 0.0481824 0
vt 0.10485 0.940841 0
vt 0.037351 0.940841 0
vt 0.037351 0.0481824 0
vt 0.34974899999999996 0.53293500000000008 0
vt 0.34974899999999996 0.96826 0
vt 0.28225 0.96826 0
vt 0.28225 0.53293500000000008 0
# 112 texture coords

g Window_001
usemtl Window
s 1
f 4/4/4 1/1/1 2/2/2
f 2/2/2 3/3/3 4/4/4
f 8/8/8 5/5/5 6/6/6
f 6/6/6 7/7/7 8/8/8
f 12/12/12 9/9/9 10/10/10
f 10/10/10 11/11/11 12/12/12
f 16/16/16 13/13/13 14/14/14
f 14/14/14 15/15/15 16/16/16
f 20/20/20 17/17/17 18/18/18
f 18/18/18 19/19/19 20/20/20
f 24/24/24 21/21/21 22/22/22
f 22/22/22 23/23/23 24/24/24
f 28/28/28 25/25/25 26/26/26
f 26/26/26 27/27/27 28/28/28
f 32/32/32 29/29/29 30/30/30
f 30/30/30 31/31/31 32/32/32
f 36/36/36 33/33/33 34/34/34
f 34/34/34 35/35/35 36/36/36
f 40/40/40 37/37/37 38/38/38
f 38/38/38 39/39/39 40/40/40
f 44/44/44 41/41/41 42/42/42
f 42/42/42 43/43/43 44/44/44
f 48/48/48 45/45/45 46/46/46
f 46/46/46 47/47/47 48/48/48
f 52/52/52 49/49/49 50/50/50
f 50/50/50 51/51/51 52/52/52
f 56/56/56 53/53/53 54/54/54
f 54/54/54 55/55/55 56/56/56
f 60/60/60 57/57/57 58/58/58
f 58/58/58 59/59/59 60/60/60
f 64/64/64 61/61/61 62/62/62
f 62/62/62 63/63/63 64/64/64
f 68/68/68 65/65/65 66/66/66
f 66/66/66 67/67/67 68/68/68
f 72/72/72 69/69/69 70/70/70
f 70/70/70 71/71/71 72/72/72
f 76/76/76 73/73/73 74/74/74
f 74/74/74 75/75/75 76/76/76
f 80/80/80 77/77/77 78/78/78
f 78/78/78 79/79/79 80/80/80
f 84/84/84 81/81/81 82/82/82
f 82/82/82 83/83/83 84/84/84
f 88/88/88 85/85/85 86/86/86
f 86/86/86 87/87/87 88/88/88
f 92/92/92 89/89/89 90/90/90
f 90/90/90 91/91/91 92/92/92
f 96/96/96 93/93/93 94/94/94
f 94/94/94 95/95/95 96/96/96
f 100/100/100 97/97/97 98/98/98
f 98/98/98 99/99/99 100/100/100
f 104/104/104 101/101/101 102/102/102
f 102/102/102 103/103/103 104/104/104
f 108/108/108 105/105/105 106/106/106
f 106/106/106 107/107/107 108/108/108
f 112/112/112 109/109/109 110/110/110
f 110/110/110 111/111/111 112/112/112
#56 polygons


#
# object Frame_001
#

v 0.79706 -0.926209 0.13304
v 0.79706 -0.926209 -0.133039
v -0.79706 -0.926209 -0.13304
v -0.79706 -0.926209 0.133039
v 0.79706 -1 0.13304
v -0.79706 -1 0.133039
v -0.79706 -1 -0.13304
v 0.79706 -1 -0.133039
v 0.79706 -0.926209 0.13304
v -0.79706 -0.926209 0.133039
v -0.79706 -1 0.133039
v 0.79706 -1 0.13304
v -0.79706 -0.926209 0.133039
v -0.79706 -0.926209 -0.13304
v -0.79706 -1 -0.13304
v -0.79706 -1 0.133039
v -0.79706 -0.926209 -0.13304
v 0.79706 -0.926209 -0.133039
v 0.79706 -1 -0.133039
v -0.79706 -1 -0.13304
v 0.79706 -0.926209 -0.133039
v 0.79706 -0.926209 0.13304
v 0.79706 -1 0.13304
v 0.79706 -1 -0.133039
# 24 vertices

vn -8.00785E-14 1 1.00313E-08
vn -8.00785E-14 1 1.00313E-08
vn -8.00785E-14 1 1.00313E-08
vn -8.00785E-14 1 1.00313E-08
vn 8.58835E-14 -1 -4.84762E-08
vn 8.58835E-14 -1 -4.84762E-08
vn 8.58835E-14 -1 -4.84762E-08
vn 8.58835E-14 -1 -4.84762E-08
vn -1.38697E-07 -1.39444E-07 1
vn -1.38697E-07 -1.39444E-07 1
vn -1.38697E-07 -1.39444E-07 1
vn -1.38697E-07 -1.39444E-07 1
vn -1 3.6967E-07 -4.84761E-08
vn -1 3.6967E-07 -4.84761E-08
vn -1 3.6967E-07 -4.84761E-08
vn -1 3.6967E-07 -4.84761E-08
vn 1.50996E-07 1.50996E-07 -1
vn 1.50996E-07 1.50996E-07 -1
vn 1.50996E-07 1.50996E-07 -1
vn 1.50996E-07 1.50996E-07 -1
vn 1 -3.6967E-07 4.84761E-08
vn 1 -3.6967E-07 4.84761E-08
vn 1 -3.6967E-07 4.84761E-08
vn 1 -3.6967E-07 4.84761E-08
# 24 vertex normals

vt 0.752144 0.03239199999999999 0
vt 0.845917 0.0323922 0
vt 0.845917 0.594203 0
vt 0.752144 0.594203 0
vt 0.965697 0.03239199999999999 0
vt 0.965697 0.594203 0
vt 0.871923 0.594203 0
vt 0.871923 0.03239199999999999 0
vt 0.991703 0.03239199999999999 0
vt 0.991703 0.594203 0
vt 0.965697 0.594203 0
vt 0.965697 0.03239199999999999 0
vt 0.752144 0.594203 0
vt 0.845917 0.594203 0
vt 0.845917 0.620209 0
vt 0.752144 0.620209 0
vt 0.845917 0.594203 0
vt 0.845917 0.0323922 0
vt 0.871923 0.03239199999999999 0
vt 0.871923 0.594203 0
vt 0.845917 0.0323922 0
vt 0.752144 0.03239199999999999 0
vt 0.752144 0.00638615 0
vt 0.845917 0.00638615 0
# 24 texture coords

g Frame_001
usemtl Window
s 2
f 116/116/116 113/113/113 114/114/114
f 114/114/114 115/115/115 116/116/116
f 120/120/120 117/117/117 118/118/118
f 118/118/118 119/119/119 120/120/120
f 124/124/124 121/121/121 122/122/122
f 122/122/122 123/123/123 124/124/124
f 128/128/128 125/125/125 126/126/126
f 126/126/126 127/127/127 128/128/128
f 132/132/132 129/129/129 130/130/130
f 130/130/130 131/131/131 132/132/132
f 136/136/136 133/133/133 134/134/134
f 134/134/134 135/135/135 136/136/136
#12 polygons


#
# object Glass_001
#

v -0.718839 -0.870579 0.0261527
v 0.71133 -0.870579 0.0261534
v 0.71133 0.952887 0.0261537
v -0.718839 0.952887 0.026153
# 4 vertices

vn -4.76837E-07 -1.62921E-07 1
vn -4.76837E-07 -1.62921E-07 1
vn -4.76837E-07 -1.62921E-07 1
vn -4.76837E-07 -1.62921E-07 1
# 4 vertex normals

vt 0.784029 0.9995 0
vt 0.0005 0.9995 0
vt 0.00050011999999999 0.0005 0
vt 0.784029 0.00050011999999999 0
# 4 texture coords

g Glass_001
usemtl Glass
s 4
f 140/140/140 137/137/137 138/138/138
f 138/138/138 139/139/139 140/140/140
#2 polygons

